<svg width="48" height="48" viewBox="0 0 48 48" fill="none" xmlns="http://www.w3.org/2000/svg">
<g clip-path="url(#clip0_2018_2)">
<path d="M9.85802 5.858L12.686 8.686C11.1981 10.1702 10.0181 11.9337 9.21393 13.8754C8.40975 15.817 7.99721 17.8984 8.00002 20C8.00002 24.42 9.79002 28.42 12.686 31.314L9.86002 34.14C7.99997 32.2853 6.52473 30.0813 5.51909 27.6547C4.51344 25.2281 3.99719 22.6267 4.00002 20C3.99667 17.3731 4.51247 14.7714 5.51778 12.3444C6.52309 9.91748 7.99809 7.71311 9.85802 5.858ZM38.142 5.858C40.0019 7.71311 41.4769 9.91748 42.4823 12.3444C43.4876 14.7714 44.0034 17.3731 44 20C44.0034 22.6269 43.4876 25.2286 42.4823 27.6556C41.4769 30.0825 40.0019 32.2869 38.142 34.142L35.314 31.314C36.802 29.8298 37.9819 28.0663 38.7861 26.1246C39.5903 24.183 40.0028 22.1016 40 20C40 15.58 38.21 11.58 35.314 8.686L38.14 5.86L38.142 5.858ZM15.514 11.514L18.344 14.344C17.5999 15.0858 17.0098 15.9674 16.6076 16.9381C16.2053 17.9087 15.9988 18.9493 16 20C16 22.21 16.896 24.21 18.344 25.656L15.514 28.486C14.3981 27.3728 13.5131 26.05 12.9101 24.5937C12.307 23.1374 11.9978 21.5762 12 20C12 16.686 13.344 13.686 15.514 11.514ZM32.486 11.514C33.602 12.6272 34.4869 13.95 35.0899 15.4063C35.693 16.8626 36.0023 18.4238 36 20C36.0023 21.5762 35.693 23.1374 35.0899 24.5937C34.4869 26.05 33.602 27.3728 32.486 28.486L29.656 25.656C30.4001 24.9142 30.9902 24.0326 31.3925 23.0619C31.7947 22.0913 32.0012 21.0507 32 20C32.0012 18.9493 31.7947 17.9087 31.3925 16.9381C30.9902 15.9674 30.4001 15.0858 29.656 14.344L32.486 11.514ZM24 24C22.9391 24 21.9217 23.5786 21.1716 22.8284C20.4214 22.0783 20 21.0609 20 20C20 18.9391 20.4214 17.9217 21.1716 17.1716C21.9217 16.4214 22.9391 16 24 16C25.0609 16 26.0783 16.4214 26.8284 17.1716C27.5786 17.9217 28 18.9391 28 20C28 21.0609 27.5786 22.0783 26.8284 22.8284C26.0783 23.5786 25.0609 24 24 24ZM24 28C25.16 28 26.154 28.826 26.368 29.966L29 44H19L21.632 29.966C21.846 28.826 22.84 28 24 28Z" fill="black"/>
</g>
<defs>
<clipPath id="clip0_2018_2">
<rect width="48" height="48" fill="white"/>
</clipPath>
</defs>
</svg>
