<svg width="48" height="48" viewBox="0 0 48 48" fill="none" xmlns="http://www.w3.org/2000/svg">
<g clip-path="url(#clip0_2018_6)">
<path d="M40 0C40 0 39.8946 4.50045 41.6971 6.30294C43.4996 8.10544 48 8 48 8C48 8 43.4996 7.89456 41.6971 9.69706C39.8946 11.4996 40 16 40 16C40 16 40.1054 11.4996 38.3029 9.69706C36.5004 7.89456 32 8 32 8C32 8 36.5004 8.10544 38.3029 6.30294C40.1054 4.50045 40 0 40 0Z" fill="black"/>
<path d="M40 44H8C5.85996 44 4.11211 42.3194 4.00488 40.2061L4 40V8C4 5.79086 5.79086 4 8 4H30V6H8C6.89543 6 6 6.89543 6 8V40C6 41.1046 6.89543 42 8 42H40C41.1046 42 42 41.1046 42 40V18H44V40L43.9951 40.2061C43.8913 42.2512 42.2512 43.8913 40.2061 43.9951L40 44Z" fill="black"/>
<path d="M20.1927 16H22.9287C23.3607 16 23.6567 16.24 23.8167 16.72L28.0887 31.6C28.2007 32.08 28.0247 32.32 27.5607 32.32H24.8967C24.4487 32.32 24.1687 32.08 24.0567 31.6L23.4327 29.296H19.4487L18.8247 31.6C18.7127 32.08 18.4327 32.32 17.9847 32.32H15.5607C15.0967 32.32 14.9207 32.08 15.0327 31.6L19.3047 16.72C19.4647 16.24 19.7607 16 20.1927 16ZM20.6487 24.88L20.3127 26.176H22.5687L22.2567 24.88C21.9367 23.504 21.6807 21.824 21.4887 19.84C21.4247 20.56 21.3047 21.432 21.1287 22.456C20.9367 23.624 20.7767 24.432 20.6487 24.88Z" fill="black"/>
<path d="M33.7144 16.72V31.6C33.7144 32.08 33.4904 32.32 33.0424 32.32H30.4504C29.9864 32.32 29.7544 32.08 29.7544 31.6V16.72C29.7544 16.24 29.9864 16 30.4504 16H33.0424C33.4904 16 33.7144 16.24 33.7144 16.72Z" fill="black"/>
</g>
<defs>
<clipPath id="clip0_2018_6">
<rect width="48" height="48" fill="white"/>
</clipPath>
</defs>
</svg>
