<svg width="24" height="24" viewBox="0 0 24 24" fill="none" xmlns="http://www.w3.org/2000/svg">
<path d="M3.96932 14.4693L11.4693 6.96933C11.539 6.89959 11.6217 6.84427 11.7127 6.80653C11.8038 6.76879 11.9014 6.74936 12 6.74936C12.0985 6.74936 12.1961 6.76879 12.2872 6.80653C12.3782 6.84427 12.4609 6.89959 12.5306 6.96933L20.0306 14.4693C20.1713 14.6101 20.2504 14.8009 20.2504 15C20.2504 15.199 20.1713 15.3898 20.0306 15.5306C19.8898 15.6713 19.699 15.7504 19.4999 15.7504C19.3009 15.7504 19.1101 15.6713 18.9693 15.5306L11.9999 8.56026L5.03057 15.5306C4.96089 15.6003 4.87817 15.6555 4.78712 15.6932C4.69608 15.731 4.59849 15.7504 4.49995 15.7504C4.4014 15.7504 4.30382 15.731 4.21278 15.6932C4.12173 15.6555 4.03901 15.6003 3.96932 15.5306C3.89964 15.4609 3.84437 15.3782 3.80665 15.2871C3.76894 15.1961 3.74953 15.0985 3.74953 14.9999C3.74953 14.9014 3.76894 14.8038 3.80665 14.7128C3.84437 14.6217 3.89964 14.539 3.96932 14.4693Z" fill="white"/>
</svg>
