<svg width="24" height="24" viewBox="0 0 24 24" fill="none" xmlns="http://www.w3.org/2000/svg">
<path d="M20.0307 9.53068L12.5307 17.0307C12.461 17.1004 12.3783 17.1557 12.2873 17.1935C12.1962 17.2312 12.0986 17.2506 12.0001 17.2506C11.9015 17.2506 11.8039 17.2312 11.7128 17.1935C11.6218 17.1557 11.5391 17.1004 11.4694 17.0307L3.96943 9.53068C3.8287 9.38995 3.74963 9.19907 3.74963 9.00005C3.74963 8.80103 3.8287 8.61016 3.96943 8.46943C4.11016 8.32869 4.30103 8.24963 4.50005 8.24963C4.69907 8.24963 4.88995 8.32869 5.03068 8.46943L12.0001 15.4397L18.9694 8.46943C19.0391 8.39974 19.1218 8.34447 19.2129 8.30676C19.3039 8.26904 19.4015 8.24963 19.5001 8.24963C19.5986 8.24963 19.6962 8.26904 19.7872 8.30676C19.8783 8.34447 19.961 8.39974 20.0307 8.46943C20.1004 8.53911 20.1556 8.62183 20.1933 8.71288C20.2311 8.80392 20.2505 8.9015 20.2505 9.00005C20.2505 9.0986 20.2311 9.19618 20.1933 9.28722C20.1556 9.37827 20.1004 9.46099 20.0307 9.53068Z" fill="white"/>
</svg>
