<svg width="48" height="48" viewBox="0 0 48 48" fill="none" xmlns="http://www.w3.org/2000/svg">
<g clip-path="url(#clip0_2046_2)">
<path d="M24 28V32C20.8174 32 17.7652 33.2643 15.5147 35.5147C13.2643 37.7652 12 40.8174 12 44H8C8 39.7565 9.68571 35.6869 12.6863 32.6863C15.6869 29.6857 19.7565 28 24 28ZM24 26C17.37 26 12 20.63 12 14C12 7.37 17.37 2 24 2C30.63 2 36 7.37 36 14C36 20.63 30.63 26 24 26ZM24 22C28.42 22 32 18.42 32 14C32 9.58 28.42 6 24 6C19.58 6 16 9.58 16 14C16 18.42 19.58 22 24 22ZM42 34H44V44H28V34H30V32C30 30.4087 30.6321 28.8826 31.7574 27.7574C32.8826 26.6321 34.4087 26 36 26C37.5913 26 39.1174 26.6321 40.2426 27.7574C41.3679 28.8826 42 30.4087 42 32V34ZM38 34V32C38 31.4696 37.7893 30.9609 37.4142 30.5858C37.0391 30.2107 36.5304 30 36 30C35.4696 30 34.9609 30.2107 34.5858 30.5858C34.2107 30.9609 34 31.4696 34 32V34H38Z" fill="black"/>
</g>
<defs>
<clipPath id="clip0_2046_2">
<rect width="48" height="48" fill="white"/>
</clipPath>
</defs>
</svg>
