<svg width="48" height="48" viewBox="0 0 48 48" fill="none" xmlns="http://www.w3.org/2000/svg">
<g clip-path="url(#clip0_2_2)">
<path d="M22 4C31.936 4 40 12.064 40 22C40 31.936 31.936 40 22 40C12.064 40 4 31.936 4 22C4 12.064 12.064 4 22 4ZM22 36C29.734 36 36 29.734 36 22C36 14.264 29.734 8 22 8C14.264 8 8 14.264 8 22C8 29.734 14.264 36 22 36ZM38.97 36.142L44.628 41.798L41.798 44.628L36.142 38.97L38.97 36.142Z" fill="black"/>
</g>
<defs>
<clipPath id="clip0_2_2">
<rect width="48" height="48" fill="white"/>
</clipPath>
</defs>
</svg>
