<svg width="48" height="48" viewBox="0 0 48 48" fill="none" xmlns="http://www.w3.org/2000/svg">
<g clip-path="url(#clip0_2042_3)">
<path d="M27.1524 34.542L16.9324 28.968C15.9514 29.9418 14.704 30.6033 13.3476 30.8692C11.9911 31.1351 10.5863 30.9935 9.31025 30.4622C8.03418 29.9308 6.94398 29.0336 6.1771 27.8836C5.41022 26.7336 5.00098 25.3822 5.00098 24C5.00098 22.6177 5.41022 21.2664 6.1771 20.1164C6.94398 18.9663 8.03418 18.0691 9.31025 17.5378C10.5863 17.0064 11.9911 16.8648 13.3476 17.1307C14.704 17.3966 15.9514 18.0582 16.9324 19.032L27.1524 13.458C26.8019 11.8134 27.0551 10.0977 27.8656 8.62448C28.6761 7.15127 29.9899 6.01904 31.5666 5.43484C33.1433 4.85065 34.8776 4.85353 36.4524 5.44295C38.0272 6.03237 39.3372 7.16896 40.1428 8.64485C40.9485 10.1207 41.1959 11.8373 40.84 13.4807C40.484 15.124 39.5484 16.5844 38.2042 17.5946C36.8601 18.6048 35.1972 19.0974 33.5196 18.9824C31.8421 18.8673 30.2621 18.1523 29.0684 16.968L18.8484 22.542C19.0523 23.5033 19.0523 24.4967 18.8484 25.458L29.0684 31.032C30.2621 29.8477 31.8421 29.1326 33.5196 29.0176C35.1972 28.9025 36.8601 29.3952 38.2042 30.4054C39.5484 31.4156 40.484 32.8759 40.84 34.5193C41.1959 36.1626 40.9485 37.8792 40.1428 39.3551C39.3372 40.831 38.0272 41.9676 36.4524 42.557C34.8776 43.1464 33.1433 43.1493 31.5666 42.5651C29.9899 41.9809 28.6761 40.8487 27.8656 39.3755C27.0551 37.9023 26.8019 36.1865 27.1524 34.542Z" fill="black"/>
</g>
<defs>
<clipPath id="clip0_2042_3">
<rect width="48" height="48" fill="white"/>
</clipPath>
</defs>
</svg>
