<svg width="48" height="48" viewBox="0 0 48 48" fill="none" xmlns="http://www.w3.org/2000/svg">
<g clip-path="url(#clip0_3_32)">
<path d="M22 3.998V10.098C19.4587 10.3493 16.9896 11.0881 14.728 12.274L12 10V4L22 3.998Z" fill="black"/>
<path d="M26 3.998L36 4V10L33.274 12.276C31.0119 11.0892 28.5421 10.3497 26 10.098V3.998Z" fill="black"/>
<path fill-rule="evenodd" clip-rule="evenodd" d="M35.3137 18.6863C32.3131 15.6857 28.2435 14 24 14C19.7565 14 15.6869 15.6857 12.6863 18.6863C9.68571 21.6869 8 25.7565 8 30C8 34.2435 9.68571 38.3131 12.6863 41.3137C15.6869 44.3143 19.7565 46 24 46C28.2435 46 32.3131 44.3143 35.3137 41.3137C38.3143 38.3131 40 34.2435 40 30C40 25.7565 38.3143 21.6869 35.3137 18.6863ZM23.7166 28.1638H22.2136C21.7207 28.1638 21.4743 28.4052 21.4743 28.8879V30.7759C21.4743 31.2759 21.7207 31.5259 22.2136 31.5259H23.963C25.3265 31.5259 26.0082 32.0776 26.0082 33.181V33.9569C26.0082 35.0776 25.3347 35.6379 23.9877 35.6379C22.6242 35.6379 21.9425 35.0776 21.9425 33.9569V33.6466C21.9425 33.1293 21.7043 32.8707 21.2279 32.8707H18.6899C18.23 32.8707 18 33.1293 18 33.6466V34.5776C18 35.9914 18.5175 37.0862 19.5524 37.8621C20.5873 38.6207 22.0821 39 24.037 39C25.9754 39 27.4538 38.6293 28.4723 37.8879C29.4908 37.1466 30 36.0776 30 34.681V32.6638C30 31.319 29.3429 30.3362 28.0287 29.7155C29.1786 29.2328 29.7536 28.3707 29.7536 27.1293V25.319C29.7536 22.4397 27.8234 21 23.963 21C22.0411 21 20.5791 21.3793 19.577 22.1379C18.5914 22.8966 18.0986 23.9914 18.0986 25.4224V26.3534C18.0986 26.8707 18.3285 27.1293 18.7885 27.1293H21.3265C21.8029 27.1293 22.0411 26.8707 22.0411 26.3534V26.0431C22.0411 24.9224 22.6653 24.3621 23.9138 24.3621C25.1458 24.3621 25.7618 24.9224 25.7618 26.0431V26.4828C25.7618 27.6034 25.0801 28.1638 23.7166 28.1638Z" fill="black"/>
</g>
<defs>
<clipPath id="clip0_3_32">
<rect width="48" height="48" fill="white"/>
</clipPath>
</defs>
</svg>
