<svg width="48" height="48" viewBox="0 0 48 48" fill="none" xmlns="http://www.w3.org/2000/svg">
<g clip-path="url(#clip0_3_6)">
<path d="M37 18C39 20.12 40 22.788 40 26C40 32.932 32.6 34.552 29 44C27.666 42.85 27 41.184 27 39C27 32.036 37 28.42 37 18ZM29 10C31.4 12.476 32.6 15.144 32.6 18C32.6 27.902 20.51 29.384 23 44C19.666 41.68 18 38.346 18 34C18 27.35 29 22 29 10ZM20 2C22.666 5.334 24 8.334 24 11C24 23.5 7 27.444 16 44C10.768 42.84 7 38 7 32C7 19 20 17 20 2Z" fill="black"/>
</g>
<defs>
<clipPath id="clip0_3_6">
<rect width="48" height="48" fill="white"/>
</clipPath>
</defs>
</svg>
