<svg width="48" height="48" viewBox="0 0 48 48" fill="none" xmlns="http://www.w3.org/2000/svg">
<g clip-path="url(#clip0_3_27)">
<path d="M22 3.998V10.098C19.4587 10.3493 16.9896 11.0881 14.728 12.274L12 10V4L22 3.998Z" fill="black"/>
<path d="M26 3.998L36 4V10L33.274 12.276C31.0119 11.0892 28.5421 10.3497 26 10.098V3.998Z" fill="black"/>
<path fill-rule="evenodd" clip-rule="evenodd" d="M35.3137 18.6863C32.3131 15.6857 28.2435 14 24 14C19.7565 14 15.6869 15.6857 12.6863 18.6863C9.68571 21.6869 8 25.7565 8 30C8 34.2435 9.68571 38.3131 12.6863 41.3137C15.6869 44.3143 19.7565 46 24 46C28.2435 46 32.3131 44.3143 35.3137 41.3137C38.3143 38.3131 40 34.2435 40 30C40 25.7565 38.3143 21.6869 35.3137 18.6863ZM22.4172 35.468V34.814C22.4172 34.4477 22.4744 34.186 22.589 34.0291C22.7035 33.8721 22.9571 33.6977 23.3497 33.5058L27.4969 31.4913C29.0838 30.7064 29.8773 29.2587 29.8773 27.1483V25.4738C29.8773 24.0959 29.3456 23.0058 28.2822 22.2035C27.2352 21.4012 25.771 21 23.8896 21C22.0245 21 20.5767 21.3924 19.546 22.1773C18.5153 22.9622 18 24.061 18 25.4738V27.0959C18 27.6192 18.2372 27.8808 18.7117 27.8808H21.2393C21.6973 27.8808 21.9264 27.6192 21.9264 27.0959V26.1541C21.9264 25.0203 22.5808 24.4535 23.8896 24.4535C25.2147 24.4535 25.8773 25.0203 25.8773 26.1541V27.3052C25.8773 27.968 25.6155 28.4302 25.092 28.6919L20.2822 31.0203C19.5787 31.3692 19.0798 31.7791 18.7853 32.25C18.5072 32.7209 18.3681 33.3401 18.3681 34.1076V38.2413C18.3681 38.7471 18.6135 39 19.1043 39H29.2638C29.7546 39 30 38.7471 30 38.2413V36.2006C30 35.7122 29.7546 35.468 29.2638 35.468H22.4172Z" fill="black"/>
</g>
<defs>
<clipPath id="clip0_3_27">
<rect width="48" height="48" fill="white"/>
</clipPath>
</defs>
</svg>
