<svg width="48" height="48" viewBox="0 0 48 48" fill="none" xmlns="http://www.w3.org/2000/svg">
<g clip-path="url(#clip0_3_10)">
<path d="M22 3.998V10.098C19.4587 10.3493 16.9896 11.0881 14.728 12.274L12 10V4L22 3.998Z" fill="black"/>
<path d="M26 3.998L36 4V10L33.274 12.276C31.0119 11.0892 28.5421 10.3497 26 10.098V3.998Z" fill="black"/>
<path fill-rule="evenodd" clip-rule="evenodd" d="M35.3137 18.6863C32.3131 15.6857 28.2435 14 24 14C19.7565 14 15.6869 15.6857 12.6863 18.6863C9.68571 21.6869 8 25.7565 8 30C8 34.2435 9.68571 38.3131 12.6863 41.3137C15.6869 44.3143 19.7565 46 24 46C28.2435 46 32.3131 44.3143 35.3137 41.3137C38.3143 38.3131 40 34.2435 40 30C40 25.7565 38.3143 21.6869 35.3137 18.6863ZM25.5395 20.8168L18.8472 21.8888C18.3343 21.9934 18.0779 22.2723 18.0779 22.7255V24.7648C18.0779 25.2703 18.3343 25.4882 18.8472 25.4185L22.0266 24.8956V35.2755H18.8472C18.3343 35.2755 18.0779 35.5195 18.0779 36.0076V38.047C18.0779 38.5525 18.3343 38.8052 18.8472 38.8052H29.3087C29.8215 38.8052 30.0779 38.5525 30.0779 38.047V36.0076C30.0779 35.5195 29.8215 35.2755 29.3087 35.2755H26.2574V21.5489C26.2574 21.27 26.1976 21.0696 26.0779 20.9475C25.9583 20.8255 25.7788 20.782 25.5395 20.8168Z" fill="black"/>
</g>
<defs>
<clipPath id="clip0_3_10">
<rect width="48" height="48" fill="white"/>
</clipPath>
</defs>
</svg>
